<svg width="208" height="206" viewBox="0 0 208 206" fill="none" xmlns="http://www.w3.org/2000/svg">
<path d="M78.6522 59.1035C68.2982 76.0352 50.1221 112.647 60.2492 123.642C72.9081 137.385 98.9629 155.807 115.489 156.769C124.829 157.314 134.836 144.216 143.851 132.418C150.64 123.533 156.866 115.384 161.82 114.357C125.243 103.135 90.991 72.8756 78.9816 58.7799C78.8678 58.8829 78.758 58.9908 78.6522 59.1035Z" fill="white" fill-opacity="0.3"/>
<path d="M78.9816 58.7799C90.991 72.8756 125.243 103.135 161.82 114.357C161.926 114.335 162.031 114.316 162.136 114.3C173.555 112.622 93.6224 45.5245 78.9816 58.7799Z" fill="white" fill-opacity="0.3"/>
<path d="M60.1531 99.6634C50.3896 86.294 45.458 69.805 47.8966 62.126C50.3353 54.447 55.8636 51.87 63.037 51.7177C69.725 51.5756 79.353 59.1195 78.0443 60.2191L74.4716 67.353C74.2927 66.6565 70.323 59.1051 65.4279 58.5635C58.423 57.7885 55.6726 63.4169 54.6221 69.1648C52.8675 78.765 62.0967 93.0106 62.0967 93.0106L60.1531 99.6634Z" fill="white" fill-opacity="0.3"/>
</svg>
