<svg width="273" height="276" viewBox="0 0 273 276" fill="none" xmlns="http://www.w3.org/2000/svg">
<path fill-rule="evenodd" clip-rule="evenodd" d="M200.783 47.3466C203.877 49.192 205.284 52.9158 204.27 56.5868C203.887 58.2105 203.525 59.5215 203.525 59.5215C203.525 59.5215 190.931 104.175 127.674 134.469C101.941 146.793 76.0618 170.163 64.1602 194.587C62.5796 197.854 59.2546 199.995 55.7446 199.998C52.2346 200.002 49.2364 197.871 48.1548 194.599C39.6863 169.181 34.6898 123.943 76.4363 80.3483C114.079 41.0409 166.878 27.9605 200.783 47.3466Z" fill="#FF7A4A" fill-opacity="0.3"/>
<path fill-rule="evenodd" clip-rule="evenodd" d="M72.7153 228.831C69.4778 226.919 67.9992 223.03 69.0592 219.199C69.4061 217.694 69.7281 216.517 69.7281 216.517C69.7281 216.517 82.3214 171.864 145.579 141.57C171.081 129.357 196.725 106.293 208.767 82.1134C210.441 78.7423 213.904 76.556 217.539 76.589C221.177 76.6187 224.265 78.8545 225.357 82.2511C233.669 107.814 238.122 152.556 196.817 195.691C159.264 234.898 106.633 248.012 72.7153 228.831Z" fill="#FF7A4A" fill-opacity="0.3"/>
</svg>
