<svg width="122" height="122" viewBox="0 0 122 122" fill="none" xmlns="http://www.w3.org/2000/svg">
<path fill-rule="evenodd" clip-rule="evenodd" d="M89.6338 20.6689C91.0104 21.4899 91.6362 23.1466 91.1854 24.7798C91.0147 25.5022 90.8536 26.0854 90.8536 26.0854C90.8536 26.0854 85.2509 45.9515 57.108 59.4291C45.6595 64.9119 34.1463 75.3092 28.8513 86.1749C28.1481 87.6288 26.6689 88.581 25.1073 88.5825C23.5457 88.5841 22.2118 87.636 21.7306 86.1805C17.963 74.872 15.7402 54.7462 34.3129 35.3511C51.0597 17.8636 74.5498 12.0442 89.6338 20.6689Z" fill="white" fill-opacity="0.3"/>
<path fill-rule="evenodd" clip-rule="evenodd" d="M32.6574 101.41C31.2171 100.559 30.5592 98.8293 31.0308 97.1249C31.1852 96.4553 31.3284 95.9318 31.3284 95.9318C31.3284 95.9318 36.9311 76.0658 65.074 62.5882C76.4196 57.1549 87.8286 46.8939 93.1858 36.1364C93.9304 34.6367 95.4714 33.664 97.0886 33.6787C98.7071 33.6919 100.081 34.6866 100.566 36.1977C104.265 47.5706 106.245 67.4759 87.8692 86.6661C71.1622 104.109 47.7472 109.944 32.6574 101.41Z" fill="white" fill-opacity="0.3"/>
</svg>
