<svg width="104" height="138" viewBox="0 0 104 138" fill="none" xmlns="http://www.w3.org/2000/svg">
<path fill-rule="evenodd" clip-rule="evenodd" d="M104 0H0V75C7.1797 75 13 80.8203 13 88C13 95.1797 7.1797 101 0 101V138H0.679491L18 126L35 137.778L52 126L69 137.778L86 126L103.321 138H104V101C96.8203 101 91 95.1797 91 88C91 80.8203 96.8203 75 104 75V0Z" fill="#DA5221"/>
<path d="M54.9749 75.7876C55.2153 75.199 55.4636 74.5996 55.7195 73.9886C56.4085 72.3439 57.0399 70.8131 57.6125 69.3786C57.6125 69.3786 52.892 64.6426 49.3751 65.3308C47.2263 65.7513 45.6696 67.5582 44.659 68.3666C43.6484 69.1751 41.9432 71.7694 39.4936 71.9647C37.9139 72.0906 36.4746 72.2511 35.5635 70.9527C34.7568 69.803 35.5635 67.3547 35.5635 67.3547C35.5635 67.3547 32.3769 69.0023 31.8579 70.9527C31.1339 73.6742 34.6652 76.5747 35.5635 77.1369C36.4618 77.6991 40.2967 79.8736 43.6484 80.0603C48.3678 80.3231 54.9749 75.7876 54.9749 75.7876Z" fill="white"/>
<path d="M55.7195 73.9886C55.4636 74.5996 55.2153 75.199 54.9749 75.7876C54.9749 75.7876 55.2467 75.9737 55.7195 76.2683C57.5812 77.4281 62.5587 80.27 66.3309 80.0603C70.2176 79.8442 74.4158 77.2493 75.5387 76.2374C76.6616 75.2254 78.7349 72.7056 77.8968 70.3905C77.271 68.6621 74.3035 67.3547 74.3035 67.3547C74.3035 67.3547 74.7342 70.519 73.4052 71.5149C71.8552 72.6764 69.9242 71.8522 68.5767 70.3905C67.2292 68.9288 66.0464 66.2303 63.4114 66.0054C60.8018 65.7827 57.6125 69.3786 57.6125 69.3786C57.0399 70.8131 56.4085 72.3439 55.7195 73.9886Z" fill="white"/>
<path d="M65.7694 58.472C65.6752 56.1134 67.5676 54.149 69.9242 54.0869C72.342 54.0232 74.4001 56.0521 74.3035 58.472C74.2104 60.8007 72.2508 62.5811 69.9242 62.5198C67.6612 62.4603 65.86 60.737 65.7694 58.472Z" fill="white"/>
<path d="M36.1249 58.472C36.0319 56.1433 37.8431 54.2095 40.1674 54.0869C42.6138 53.9578 44.7568 56.0209 44.659 58.472C44.5648 60.8331 42.524 62.644 40.1674 62.5198C37.9379 62.4023 36.2142 60.7058 36.1249 58.472Z" fill="white"/>
<path fill-rule="evenodd" clip-rule="evenodd" d="M53.5 34.5C42.2263 37.0178 33.3522 42.5057 27.064 48.887C27.064 48.887 17.2045 55.2302 15.239 50.9386C13.4118 46.9487 22.6601 42.5057 22.6601 42.5057C34.9754 37.2948 41.2144 33.7811 51.0595 26.3145C51.0595 26.3145 61.5633 19.7729 63.0745 24.2906C64.2469 27.7957 58.1337 32.3603 58.1337 32.3603C56.5 33 55.4456 34.5053 53.5 34.5ZM47.7456 20.0662C37.83 28.0312 31.6837 31.5256 19.5027 35.8076C17.9558 32.2963 17.7639 30.2812 20.3806 27.3264C23.0925 24.2643 30.3982 24.2906 30.3982 24.2906C30.3982 24.2906 34.7395 16.5958 39.4936 16.0826C43.4775 15.6525 45.6467 16.8912 47.7456 20.0662Z" fill="white"/>
<path d="M53.5 34.5C42.2263 37.0178 33.3522 42.5057 27.064 48.887L53.8615 34.5053C53.4326 33.7062 53.9656 35.3397 53.5 34.5Z" fill="white"/>
</svg>
