<svg width="104" height="138" viewBox="0 0 104 138" fill="none" xmlns="http://www.w3.org/2000/svg">
<path fill-rule="evenodd" clip-rule="evenodd" d="M104 0H0V75C7.1797 75 13 80.8203 13 88C13 95.1797 7.1797 101 0 101V138H0.679491L18 126L35 137.778L52 126L69 137.778L86 126L103.321 138H104V101C96.8203 101 91 95.1797 91 88C91 80.8203 96.8203 75 104 75V0Z" fill="#DA5221" fill-opacity="0.3"/>
<path d="M55.9749 67.7876C56.2153 67.199 56.4636 66.5996 56.7195 65.9886C57.4085 64.3439 58.0399 62.8131 58.6125 61.3786C58.6125 61.3786 53.892 56.6426 50.3751 57.3308C48.2263 57.7513 46.6696 59.5582 45.659 60.3666C44.6484 61.1751 42.9432 63.7694 40.4936 63.9647C38.9139 64.0906 37.4746 64.2511 36.5635 62.9527C35.7568 61.803 36.5635 59.3547 36.5635 59.3547C36.5635 59.3547 33.3768 61.0023 32.8579 62.9527C32.1339 65.6742 35.6652 68.5747 36.5635 69.1369C37.4618 69.6991 41.2967 71.8736 44.6484 72.0603C49.3678 72.3231 55.9749 67.7876 55.9749 67.7876Z" fill="white"/>
<path d="M56.7195 65.9886C56.4636 66.5996 56.2153 67.199 55.9749 67.7876C55.9749 67.7876 56.2467 67.9737 56.7195 68.2683C58.5812 69.4281 63.5587 72.27 67.3309 72.0603C71.2176 71.8442 75.4158 69.2493 76.5387 68.2374C77.6616 67.2254 79.7349 64.7056 78.8968 62.3905C78.271 60.6621 75.3035 59.3547 75.3035 59.3547C75.3035 59.3547 75.7342 62.519 74.4052 63.5149C72.8552 64.6764 70.9242 63.8522 69.5767 62.3905C68.2292 60.9288 67.0464 58.2303 64.4114 58.0054C61.8019 57.7827 58.6125 61.3786 58.6125 61.3786C58.0399 62.8131 57.4085 64.3439 56.7195 65.9886Z" fill="white"/>
<path d="M66.7694 50.472C66.6752 48.1134 68.5676 46.149 70.9242 46.0869C73.342 46.0232 75.4001 48.0521 75.3035 50.472C75.2105 52.8007 73.2508 54.5811 70.9242 54.5198C68.6612 54.4603 66.86 52.737 66.7694 50.472Z" fill="white"/>
<path d="M37.1249 50.472C37.0319 48.1433 38.8431 46.2095 41.1674 46.0869C43.6138 45.9578 45.7568 48.0209 45.659 50.472C45.5648 52.8331 43.524 54.644 41.1674 54.5198C38.9379 54.4023 37.2142 52.7058 37.1249 50.472Z" fill="white"/>
<path fill-rule="evenodd" clip-rule="evenodd" d="M54.5 26.5C43.2263 29.0178 34.3522 34.5057 28.064 40.887C28.064 40.887 18.2045 47.2302 16.239 42.9386C14.4118 38.9487 23.6601 34.5057 23.6601 34.5057C35.9754 29.2948 42.2144 25.7811 52.0595 18.3145C52.0595 18.3145 62.5633 11.7729 64.0745 16.2906C65.2469 19.7957 59.1337 24.3603 59.1337 24.3603C57.5 25 56.4456 26.5053 54.5 26.5ZM48.7456 12.0662C38.83 20.0312 32.6837 23.5256 20.5027 27.8076C18.9558 24.2963 18.7639 22.2812 21.3806 19.3264C24.0925 16.2643 31.3982 16.2906 31.3982 16.2906C31.3982 16.2906 35.7395 8.59576 40.4936 8.08256C44.4775 7.65251 46.6467 8.89121 48.7456 12.0662Z" fill="white"/>
<path d="M54.5 26.5C43.2263 29.0178 34.3522 34.5057 28.064 40.887L54.8615 26.5053C54.4326 25.7062 54.9656 27.3397 54.5 26.5Z" fill="white"/>
</svg>
