<svg width="40" height="39" viewBox="0 0 40 39" fill="none" xmlns="http://www.w3.org/2000/svg">
<path d="M5.11004 1C4.5166 1 4.05374 1.5138 4.11546 2.10402L7.50708 34.5337C7.56033 35.0429 7.98964 35.4297 8.50165 35.4297H25.4343C25.9463 35.4297 26.3756 35.043 26.4289 34.5337L29.8212 2.10404C29.883 1.51382 29.4201 1 28.8267 1H5.11004ZM7.94453 3.27982C8.00952 2.90429 8.36406 2.65058 8.74048 2.71025L16.0969 3.87634C16.5124 3.94221 16.7948 4.33382 16.7262 4.74889C16.6393 5.27351 17.1055 5.72217 17.6264 5.61533L23.7181 4.3659C24.2548 4.25582 24.7802 4.59814 24.8963 5.13359L25.1174 6.15333C25.2171 6.61326 25.6241 6.94141 26.0947 6.94141H26.6462C27.2371 6.94141 27.6992 7.45107 27.6414 8.03915L25.1894 33.004C25.1391 33.516 24.7086 33.9062 24.1942 33.9062H9.74189C9.2274 33.9062 8.79687 33.5159 8.74666 33.0038L6.26484 7.69551L6.2538 7.58895C6.21793 7.24266 6.48958 6.94141 6.83773 6.94141C7.12476 6.94141 7.3697 6.73386 7.41682 6.45073L7.94453 3.27982ZM10.1977 4.33137C9.65535 4.24556 9.14524 4.61317 9.05505 5.15484L8.407 9.04705C8.31576 9.595 8.6886 10.1123 9.23728 10.199L13.2852 10.8389C13.8275 10.9246 14.3376 10.557 14.4278 10.0154L15.0758 6.12372C15.167 5.57582 14.7943 5.05854 14.2456 4.97175L10.1977 4.33137ZM23.8024 6.75889C23.6864 6.2229 23.1604 5.88033 22.6233 5.99098L18.6281 6.814C18.0837 6.92614 17.7353 7.46063 17.8523 8.00396L18.6815 11.8544C18.7969 12.3904 19.3223 12.7335 19.8594 12.6236L23.8598 11.8057C24.4052 11.6942 24.7546 11.1587 24.6368 10.6145L23.8024 6.75889ZM14.9845 16.809C14.5021 16.5574 13.9071 16.7376 13.6454 17.2146L11.7405 20.6862C11.4709 21.1777 11.6578 21.7947 12.1548 22.0539L15.7561 23.932C16.2385 24.1836 16.8335 24.0034 17.0952 23.5264L19.0001 20.0548C19.2697 19.5634 19.0828 18.9463 18.5858 18.6871L14.9845 16.809Z" fill="white"/>
</svg>
