<svg width="60" height="57" viewBox="0 0 60 57" fill="none" xmlns="http://www.w3.org/2000/svg">
<path d="M12.53 19.51C12.5487 19.5151 12.5675 19.5203 12.5864 19.5254M51.8029 19.0732C51.7103 19.1028 51.6175 19.1321 51.5246 19.1611M51.5246 19.1611C37.2683 23.6116 19.563 21.4177 12.5864 19.5254M51.5246 19.1611C50.1557 20.5844 49.9469 24.582 49.7193 28.9413C49.4171 34.7293 49.0815 41.1548 45.9529 43.0391C40.4175 46.373 27.9628 46.1843 20.8548 44.5488C15.1684 43.2404 12.95 27.4393 12.5517 19.7023C12.5609 19.6426 12.5725 19.5837 12.5864 19.5254M51.5246 19.1611C51.5539 19.1306 51.5838 19.1013 51.6141 19.0732C54.9223 16.0148 14.3795 12.0273 12.5864 19.5254" stroke="white" stroke-width="0.852924"/>
<path d="M15.0472 36.8463C8.95429 34.6927 3.72984 30.4689 2.8221 27.4576C1.91436 24.4464 3.12687 22.3973 5.40393 20.7665C7.52689 19.246 12.2916 19.5529 12.1126 20.1957L12.5348 23.2814C12.3236 23.0965 9.37982 21.5394 7.68361 22.4444C5.25635 23.7394 5.61149 26.1588 6.54056 28.2419C8.09226 31.7212 14.2063 34.2748 14.2063 34.2748L15.0472 36.8463Z" stroke="white" stroke-width="1.06615"/>
</svg>
