<svg width="130" height="130" viewBox="0 0 130 130" fill="none" xmlns="http://www.w3.org/2000/svg">
<path d="M43.2463 53.3205C43.2677 53.3278 43.2891 53.335 43.3107 53.3423M88.8251 55.5683C88.7156 55.5961 88.606 55.6236 88.4962 55.6507M88.4962 55.6507C71.6498 59.8125 51.2693 56.0262 43.3107 53.3423M88.4962 55.6507C86.8087 57.2054 86.2862 61.8272 85.7165 66.867C84.96 73.5586 84.1202 80.9874 80.3595 82.9533C73.7058 86.4316 59.2743 85.3392 51.1452 82.9439C44.642 81.0277 43.1774 62.5462 43.258 53.545C43.2728 53.4764 43.2904 53.4089 43.3107 53.3423M88.4962 55.6507C88.5323 55.6174 88.569 55.5855 88.6062 55.5551C92.6574 52.2399 45.9162 44.7718 43.3107 53.3423" stroke="white" stroke-width="1.58"/>
<path d="M44.9605 73.7375C38.045 70.8124 32.282 65.5472 31.4404 61.9912C30.5988 58.4351 32.1488 56.1437 34.9041 54.4119C37.4729 52.7974 42.9238 53.4932 42.6711 54.2261L42.998 57.8289C42.766 57.5996 39.461 55.5873 37.4303 56.5179C34.5244 57.8495 34.7666 60.6805 35.698 63.1616C37.2536 67.3056 44.1656 70.6961 44.1656 70.6961L44.9605 73.7375Z" stroke="white" stroke-width="1.23"/>
</svg>
