<svg width="68" height="49" viewBox="0 0 68 49" fill="none" xmlns="http://www.w3.org/2000/svg">
<path d="M56.3906 16.3698L56.3712 16.4438L56.4376 16.4819L62.068 19.7049C63.8122 20.7035 65.1337 22.2999 65.7889 24.2C66.2817 25.6289 66.0228 27.1946 65.0963 28.3889L65.1754 28.4502L65.0963 28.3889C64.5551 29.0867 63.8343 29.5953 63.0284 29.8732C62.4548 30.071 61.8378 30.1521 61.2113 30.1014L52.9479 29.4328L52.8855 29.4278L52.8537 29.4818C52.5339 30.0249 52.0323 30.4364 51.4369 30.6418C51.206 30.7214 50.9614 30.7701 50.7076 30.7838L45.804 31.0476L45.7449 31.0508L45.7193 31.1041C45.4205 31.7251 44.8852 32.2281 44.1918 32.4672L31.358 36.8927C30.6645 37.1318 29.9331 37.0655 29.315 36.7607L29.2619 36.7345L29.2134 36.7684L25.1895 39.5831C24.9813 39.7287 24.7584 39.8412 24.5277 39.9207C23.9321 40.1261 23.2836 40.1111 22.697 39.8806L22.6387 39.8576L22.5926 39.9001L16.4976 45.5198C16.0356 45.9459 15.4997 46.2623 14.9261 46.4601C14.1201 46.738 13.2392 46.7818 12.3828 46.5659C10.9172 46.1964 9.74831 45.123 9.25559 43.6941C8.60039 41.794 8.65711 39.7224 9.41513 37.861L11.8624 31.8526L11.8912 31.7817L11.8303 31.7353L10.9431 31.0598C9.86313 30.2375 9.57646 28.7368 10.2769 27.5689L10.1911 27.5174L10.2769 27.5689C11.5694 25.4135 14.5009 21.4042 19.7268 18.4681L19.8014 18.4262L19.7716 18.3461C19.4047 17.3586 19.6523 16.2394 20.4274 15.4912C22.8682 13.1354 25.9378 11.2761 29.3044 10.1152C32.671 8.95427 36.2342 8.52648 39.6084 8.87715C40.68 8.98854 41.5648 9.71726 41.8845 10.721L41.9104 10.8024L41.9949 10.7895C47.9199 9.88051 52.6995 11.2309 55.0458 12.1314L55.0816 12.038L55.0458 12.1314C56.3174 12.6194 57.0165 13.9778 56.6729 15.291L56.3906 16.3698ZM10.9537 38.4875L10.8611 38.4498C10.2457 39.9609 10.1997 41.6428 10.7316 43.1852C11.0564 44.1273 11.7982 44.8085 12.7644 45.052C13.7307 45.2957 14.7068 45.0475 15.4394 44.372L21.2258 39.0364L21.3135 38.9556L21.2186 38.8833L13.2818 32.8405L13.1779 32.7613L13.1286 32.8823L10.8611 38.4498L10.9537 38.4875ZM23 38.2775C23.3812 38.5678 23.9019 38.5783 24.2946 38.3036C24.2946 38.3036 24.2946 38.3036 24.2946 38.3036L28.0662 35.6655L28.1519 35.6056L28.0942 35.5306L20.5253 19.9312L20.4787 19.8352L20.3859 19.888C15.5397 22.6416 12.8206 26.3629 11.6157 28.3719L11.7014 28.4234L11.6157 28.3719C11.3255 28.8559 11.442 29.4776 11.8887 29.8177L11.8887 29.8177L23 38.2775ZM21.5116 16.6147L21.581 16.6867L21.5116 16.6147C21.1621 16.9521 21.0663 17.4694 21.276 17.9018L29.5032 34.8579C29.7456 35.3574 30.3241 35.5976 30.849 35.4166L43.6829 30.9911C44.2078 30.8102 44.5154 30.2644 44.3981 29.7217L40.4257 11.2985C40.3244 10.8287 39.9301 10.4804 39.4468 10.4302C36.296 10.1027 32.9649 10.5045 29.8133 11.5913C26.6617 12.678 23.7909 14.4147 21.5116 16.6147ZM45.9279 29.4047L45.9525 29.476L46.0278 29.4719L50.6238 29.2246C51.1022 29.1988 51.5057 28.8698 51.627 28.4062L55.1625 14.8958L55.0657 14.8705L55.1625 14.8958C55.3045 14.3527 55.0131 13.7912 54.4863 13.589C52.2994 12.7496 47.8645 11.4953 42.3509 12.3139L42.2453 12.3295L42.2678 12.4339L45.924 29.39C45.9248 29.3941 45.926 29.3992 45.9279 29.4047ZM53.4033 27.7855L53.3731 27.9009L53.4919 27.9105L61.3373 28.5452C62.3305 28.6256 63.2521 28.2193 63.8628 27.432C64.4736 26.6447 64.6378 25.6511 64.313 24.7089C63.7811 23.1665 62.7083 21.8706 61.2923 21.0601L56.0751 18.0735L55.9617 18.0086L55.9286 18.135L53.4033 27.7855Z" fill="white" stroke="white" stroke-width="0.2"/>
</svg>
