<svg width="135" height="90" viewBox="0 0 135 90" fill="none" xmlns="http://www.w3.org/2000/svg">
<g clip-path="url(#clip0_242_1500)">
<path d="M57.5557 15.4351C57.461 15.725 57.309 15.9849 57.0571 16.1346L57.0042 16.1613C56.4696 16.4308 55.7696 16.1794 55.466 15.5782C55.362 15.3722 55.3466 15.1705 55.3592 15.0144C55.3655 14.9367 55.3786 14.8736 55.3892 14.8324C55.3944 14.812 55.3989 14.7976 55.4014 14.7902C55.402 14.7883 55.4025 14.7869 55.4028 14.786L55.6081 14.2635L55.0645 14.1245C55.0636 14.1242 55.0624 14.1238 55.0609 14.1233C55.0538 14.1211 55.04 14.1165 55.0209 14.109C54.9825 14.0939 54.9253 14.068 54.8603 14.0283C54.7301 13.9486 54.5792 13.8196 54.4757 13.6153C54.173 13.0148 54.3871 12.3028 54.9208 12.0329C55.1667 11.9101 55.4535 11.8968 55.7177 11.9729C56.1556 12.1052 56.8053 12.3145 57.3494 12.492C57.6213 12.5807 57.8655 12.6611 58.0418 12.7193L58.2501 12.7882L58.3065 12.8069L58.3211 12.8117L58.3248 12.813L58.3257 12.8133L58.3259 12.8133L58.326 12.8134L58.4838 12.3389L58.326 12.8134L58.3273 12.8138C58.3906 12.8346 58.4207 12.9005 58.4005 12.9583L58.4002 12.959L58.8724 13.1236L58.4002 12.9591L58.4002 12.9591L58.4001 12.9594L58.3998 12.9603L58.3985 12.9638L58.3937 12.9778L58.375 13.0315L58.3064 13.2291C58.2484 13.3961 58.1684 13.6272 58.0801 13.8838C57.904 14.3956 57.6935 15.0125 57.5597 15.423L57.5561 15.4339L57.5557 15.4351Z" stroke="white"/>
<path d="M45.1967 14.5925C45.7986 14.3425 46.5486 14.6374 46.885 15.3041L46.885 15.3042C47.0044 15.5407 47.0024 15.7738 46.9638 15.9623C46.9445 16.0565 46.917 16.1343 46.895 16.187C46.8841 16.2131 46.875 16.2321 46.8696 16.2428L46.8649 16.2517L46.4921 16.8947L47.2289 16.9938L47.2397 16.9957C47.2521 16.9982 47.2737 17.0028 47.3023 17.0105C47.3599 17.026 47.4423 17.053 47.5334 17.0974C47.7161 17.1863 47.9167 17.3357 48.0448 17.5897L48.0449 17.5898C48.393 18.2797 48.1484 19.0959 47.5315 19.4072L47.7567 19.8536L47.7451 19.8498L47.529 19.4181C47.2533 19.5562 46.9243 19.5688 46.6098 19.4761C46.0988 19.3223 45.3398 19.0796 44.7052 18.8742C44.3883 18.7716 44.1036 18.6787 43.8981 18.6115L43.6553 18.5318L43.5895 18.5102L43.5725 18.5046L43.5682 18.5032L43.5671 18.5028L43.5668 18.5027L43.5668 18.5027L43.4103 18.9776L43.5668 18.5027C43.5035 18.4819 43.4734 18.4158 43.4935 18.3584L43.4935 18.3583L43.4939 18.3573L43.4954 18.3531L43.5011 18.3367L43.5232 18.2737L43.6042 18.0422C43.6725 17.8465 43.7669 17.5757 43.8709 17.2752C44.0785 16.6756 44.3261 15.9533 44.4819 15.4747L44.4822 15.4737C44.5978 15.1161 44.7903 14.7976 45.1197 14.6314L45.1967 14.5925Z" stroke="white"/>
<path d="M40.2192 22.1104L40.2182 22.1109C39.9838 22.2285 39.6717 22.5075 39.5372 22.8856L39.5328 22.8979L39.5326 22.8978C39.3146 23.4637 39.0056 24.315 38.7499 25.0285C38.6224 25.3845 38.5085 25.7048 38.4266 25.9362L38.3299 26.2097L38.3037 26.2838L38.297 26.303L38.2953 26.3079L38.2948 26.3091L38.2948 26.3091C38.2728 26.3718 38.3091 26.4367 38.367 26.4533C38.367 26.4533 38.367 26.4533 38.367 26.4533L38.3671 26.4533L38.3674 26.4534L38.3686 26.4538L38.3735 26.4552L38.3925 26.4606L38.4653 26.4816L38.7334 26.559C38.9599 26.6245 39.2732 26.7154 39.6203 26.8168C40.3133 27.0192 41.1456 27.2649 41.691 27.4349L41.6922 27.4353C42.0967 27.5624 42.5236 27.5948 42.8976 27.4063C42.8976 27.4063 42.8976 27.4063 42.8977 27.4063M40.2192 22.1104L43.9481 25.146C44.4435 26.1288 44.1004 27.3597 43.1228 27.8527L42.8977 27.4063M40.2192 22.1104C40.9288 21.7524 41.8355 22.0685 42.218 22.826L42.6644 22.6006L40.2192 22.1104ZM42.8977 27.4063C43.6039 27.0501 43.8857 26.1329 43.5016 25.371L43.5016 25.371C43.349 25.0683 43.1214 24.8793 42.9244 24.7637C42.8261 24.706 42.7385 24.6685 42.6779 24.6462C42.6479 24.635 42.6251 24.6279 42.6118 24.624L42.5998 24.6206L42.8977 27.4063Z" stroke="white"/>
<path d="M55.2812 31.9418C53.9586 31.6361 52.6635 31.76 51.4519 32.2692C49.0287 33.2876 46.9714 35.6802 45.2657 38.7956C44.8616 39.5178 45.9523 40.1175 46.3455 39.3892C47.9765 36.4102 49.9189 34.2406 51.9275 33.3965C53.9361 32.5524 56.0392 32.8768 58.4453 35.1063C59.0456 35.7435 59.957 34.7564 59.274 34.2089C58.0273 33.2272 56.676 32.2338 55.2812 31.9418Z" fill="white"/>
<path d="M47.9532 22.4086C47.0807 22.1959 46.0664 22.3966 44.8737 22.9734C44.0519 23.2954 44.6445 24.5176 45.4063 24.072C46.449 23.5678 47.1832 23.4807 47.6659 23.5983C48.1477 23.7184 48.4692 24.0211 48.7556 24.5951C49.3282 25.7434 49.4775 27.8987 49.4181 30.1522C49.3962 30.9698 50.6227 31.0027 50.6445 30.1852C50.7054 27.8736 50.6425 25.6291 49.8571 24.054C49.3738 23.1364 48.7202 22.5887 47.9532 22.4086Z" fill="white"/>
<path d="M60.9497 22.8275C60.1538 22.5086 59.3185 22.5574 58.5657 22.8413C57.06 23.4093 55.7775 24.8052 54.5842 26.2876C53.9505 26.9276 55.0336 27.8075 55.5303 27.056C56.6799 25.6279 57.9289 24.3865 58.9984 23.9831C59.5333 23.7812 59.9934 23.7615 60.4905 23.961C60.9882 24.1585 61.5533 24.6167 62.1394 25.4845C62.5712 26.2762 63.7259 25.4888 63.1461 24.7978C62.5555 23.9028 61.7353 23.1717 60.9496 22.8276L60.9497 22.8275Z" fill="white"/>
<path d="M51.6187 15.2423C50.8105 15.0248 49.863 15.0763 48.7521 15.392C47.9231 15.5903 48.2789 16.8373 49.0878 16.5685C50.0496 16.2953 50.7665 16.2879 51.3026 16.4324C51.8391 16.5756 52.217 16.8613 52.5406 17.297C53.1871 18.1698 53.5102 19.6973 53.6522 21.3176C53.6814 22.1829 54.9999 22.0609 54.8695 21.205C54.7209 19.5082 54.4383 17.7987 53.5241 16.5649C52.9778 15.8494 52.3428 15.4541 51.6185 15.2424L51.6187 15.2423Z" fill="white"/>
<path d="M58.7123 37.0983C58.6138 37.147 58.5302 37.221 58.4702 37.3132L58.7123 37.0983Z" fill="white"/>
<path d="M62.4228 41.467C62.4228 41.467 62.4227 41.467 62.4227 41.467L62.4227 41.4669L62.4224 41.4668L62.4212 41.4664L62.4164 41.4646L62.3979 41.4577L62.3268 41.4313L62.0653 41.3341C61.8442 41.2521 61.5383 41.139 61.1989 41.0141C60.5213 40.7649 59.706 40.4677 59.1664 40.2801L59.1654 40.2798C58.7643 40.1413 58.4018 39.9137 58.2132 39.5397L58.2132 39.5396C57.857 38.8333 58.1757 37.9283 58.9375 37.544L58.9376 37.544C59.2402 37.3913 59.5356 37.3747 59.7627 37.3988C59.876 37.4109 59.9688 37.4328 60.0307 37.4508C60.0615 37.4598 60.0841 37.4676 60.0971 37.4723L60.1088 37.4767L60.6767 37.7219L60.7936 37.115L60.7961 37.1047C60.7993 37.0925 60.8051 37.0711 60.8146 37.0427C60.8336 36.9854 60.8661 36.9023 60.9178 36.809C61.0209 36.6227 61.194 36.4065 61.4827 36.2607C62.2406 35.8792 63.1576 36.164 63.5153 36.8737L63.5335 36.9098L63.0443 41.5412C62.9409 41.8763 62.577 42.058 62.2481 41.9355L62.4228 41.467ZM62.4228 41.467C62.4791 41.4879 62.5469 41.4575 62.5666 41.3938M62.4228 41.467L62.5666 41.3938M62.5666 41.3938L62.5666 41.3937L62.5666 41.3938ZM57.7668 39.7648C58.0384 40.3036 58.5414 40.5933 59.0022 40.7524L57.7668 39.7648Z" stroke="white"/>
<path d="M64.3018 25.8259C64.2478 25.8521 64.1978 25.887 64.1536 25.9291L64.3018 25.8259Z" fill="white"/>
<path d="M65.9157 30.8927C65.9157 30.8927 66.5168 28.9421 66.8319 27.997C66.9715 27.5813 67.0445 27.0564 66.7926 26.5567L65.9157 30.8927ZM65.9157 30.8927L65.4379 30.7455L65.4379 30.7454L65.438 30.7453C65.42 30.8034 65.3565 30.8385 65.2933 30.8177L65.1368 31.2926M65.9157 30.8927L65.438 30.7452L65.438 30.7451L65.4383 30.744L65.4397 30.7398L65.4448 30.7232L65.4645 30.6595L65.537 30.4251C65.5984 30.2272 65.6835 29.9533 65.7785 29.6499C65.9681 29.0443 66.1984 28.3163 66.3576 27.8388L66.3579 27.8379C66.4775 27.4817 66.5122 27.1112 66.3461 26.7817L66.3065 26.7032M65.9157 30.8927C65.8143 31.2209 65.4631 31.4001 65.1368 31.2926M65.9157 30.8927L61.1172 29.4246M65.1368 31.2926L65.2933 30.8177L65.2932 30.8177L65.2929 30.8176L65.2919 30.8172L65.2875 30.8158L65.2705 30.8102L65.2048 30.7885L64.9622 30.7081C64.757 30.64 64.4728 30.5455 64.1571 30.4396C63.5246 30.2275 62.77 29.9715 62.2678 29.7913M65.1368 31.2926C65.1368 31.2926 63.1132 30.6257 62.0978 30.2616M62.2678 29.7913C62.0039 29.695 61.7775 29.5302 61.6302 29.3122M62.2678 29.7913C62.2674 29.7912 62.267 29.791 62.2666 29.7909L62.0978 30.2616M62.2678 29.7913C62.2681 29.7915 62.2685 29.7916 62.2689 29.7917L62.0978 30.2616M61.6302 29.3122L61.5676 29.188C61.2566 28.5709 61.5451 27.7692 62.2352 27.4213L62.2353 27.4213C62.4893 27.2932 62.7394 27.2924 62.9392 27.3295C63.0389 27.348 63.1212 27.3752 63.1767 27.397C63.2042 27.4078 63.2244 27.4169 63.2358 27.4224L63.2456 27.4272M61.6302 29.3122C61.6055 29.2757 61.5831 29.2377 61.5631 29.1982L61.1326 29.4168L61.1172 29.4246M61.6302 29.3122L61.6608 29.3728L61.596 29.5695L61.596 29.5695L61.596 29.5695L61.596 29.5695L61.596 29.5695L61.596 29.5695L61.596 29.5695L61.596 29.5695L61.596 29.5695L61.596 29.5695L61.596 29.5695L61.5959 29.5695L61.5959 29.5695L61.5959 29.5695L61.5959 29.5695L61.5959 29.5695L61.5959 29.5695L61.5959 29.5696L61.5959 29.5696L61.5959 29.5696L61.5959 29.5696L61.5959 29.5696L61.5959 29.5696L61.5959 29.5696L61.5959 29.5696L61.5959 29.5696L61.5959 29.5696L61.5959 29.5696L61.5959 29.5696L61.5959 29.5696L61.5959 29.5696L61.5959 29.5696L61.5959 29.5696L61.5959 29.5696L61.5959 29.5696L61.5959 29.5696L61.5959 29.5696L61.5959 29.5697L61.5959 29.5697L61.5959 29.5697L61.5959 29.5697L61.5959 29.5697L61.5959 29.5697L61.5959 29.5697L61.5959 29.5697L61.5959 29.5697L61.5959 29.5697L61.5959 29.5697L61.5959 29.5697L61.5959 29.5697L61.5959 29.5697L61.5959 29.5697L61.5959 29.5697L61.5959 29.5697L61.5959 29.5697L61.5959 29.5697L61.5959 29.5697L61.5959 29.5697L61.5959 29.5697L61.5959 29.5698L61.5959 29.5698L61.5959 29.5698L61.5959 29.5698L61.5959 29.5698L61.5959 29.5698L61.5959 29.5698L61.5959 29.5698L61.5959 29.5698L61.5959 29.5698L61.5959 29.5698L61.5959 29.5698L61.5959 29.5698L61.5958 29.5698L61.5958 29.5698L61.5958 29.5698L61.5958 29.5699L61.5958 29.5699L61.5958 29.5699L61.5958 29.5699L61.5958 29.5699L61.5958 29.5699L61.5958 29.5699L61.5958 29.5699L61.5958 29.5699L61.5958 29.5699L61.5958 29.5699L61.5958 29.5699L61.5958 29.5699L61.5958 29.5699L61.5958 29.57L61.5958 29.57L61.5958 29.57L61.5958 29.57L61.5958 29.57L61.5958 29.57L61.5958 29.57L61.5958 29.57L61.5958 29.57L61.5958 29.57L61.5958 29.57L61.5958 29.5701L61.5958 29.5701L61.5958 29.5701L61.5958 29.5701L61.5958 29.5701L61.5958 29.5701L61.5958 29.5701L61.5958 29.5701L61.5958 29.5701L61.5957 29.5701L61.5957 29.5701L61.5957 29.5702L61.5957 29.5702L61.5957 29.5702L61.5957 29.5702L61.5957 29.5702L61.5957 29.5702L61.5957 29.5702L61.5957 29.5702L61.5957 29.5702L61.5957 29.5703L61.5957 29.5703L61.5957 29.5703L61.5957 29.5703L61.5957 29.5703L61.5957 29.5703L61.5957 29.5703L61.5957 29.5703L61.5957 29.5703L61.5957 29.5704L61.5957 29.5704L61.5957 29.5704L61.5957 29.5704L61.5957 29.5704L61.5957 29.5704L61.5957 29.5704L61.5956 29.5704L61.5956 29.5705L61.5956 29.5705L61.5956 29.5705L61.5956 29.5705L61.5956 29.5705L61.5956 29.5705L61.5956 29.5705L61.5956 29.5706L61.5956 29.5706L61.5956 29.5706L61.5956 29.5706L61.5956 29.5706L61.5956 29.5706L61.5956 29.5706L61.5956 29.5707L61.5956 29.5707L61.5956 29.5707L61.5956 29.5707L61.5956 29.5707L61.5956 29.5707L61.5955 29.5707L61.5955 29.5708L61.5955 29.5708L61.5955 29.5708L61.5955 29.5708L61.5955 29.5708L61.5955 29.5708L61.5955 29.5709L61.5955 29.5709L61.5955 29.5709L61.5955 29.5709L61.5955 29.5709L61.5955 29.5709L61.5955 29.571L61.5955 29.571L61.5955 29.571L61.5955 29.571L61.5955 29.571L61.5954 29.571L61.5954 29.5711L61.5954 29.5711L61.5954 29.5711L61.5954 29.5711L61.5954 29.5711L61.5954 29.5712L61.5954 29.5712L61.5954 29.5712L61.5954 29.5712L61.5954 29.5712L61.5954 29.5712L61.5954 29.5713L61.5954 29.5713L61.5954 29.5713L61.5954 29.5713L61.5953 29.5713L61.5953 29.5714L61.5953 29.5714L61.5953 29.5714L61.5953 29.5714L61.5953 29.5714L61.5953 29.5715L61.5953 29.5715L61.5953 29.5715L61.5953 29.5715L61.5953 29.5716L61.5953 29.5716L61.5953 29.5716L61.5953 29.5716L61.5953 29.5716L61.5952 29.5717L61.5952 29.5717L61.5952 29.5717L61.5952 29.5717L61.5952 29.5718L61.5952 29.5718L61.5952 29.5718L61.5952 29.5718L61.5952 29.5718L61.5952 29.5719L61.5952 29.5719L61.5952 29.5719L61.5952 29.5719L61.5951 29.572L61.5951 29.572L61.5951 29.572L61.5951 29.572L61.5951 29.5721L61.5951 29.5721L61.5951 29.5721L61.5951 29.5721L61.5951 29.5722L61.5951 29.5722L61.5951 29.5722L61.5951 29.5722L61.595 29.5723L61.595 29.5723L61.595 29.5723L61.595 29.5724L61.595 29.5724L61.595 29.5724L61.595 29.5724L61.595 29.5725L61.595 29.5725L61.595 29.5725L61.595 29.5725L61.5949 29.5726L61.5949 29.5726L61.5949 29.5726L61.5949 29.5727L61.5949 29.5727L61.5949 29.5727L61.5949 29.5727L61.5949 29.5728L61.5949 29.5728L61.5949 29.5728L61.5949 29.5729L61.5948 29.5729L61.5948 29.5729L61.5948 29.573L61.5948 29.573L61.5948 29.573L61.5948 29.573L61.5948 29.5731L61.5948 29.5731L61.5948 29.5731L61.5947 29.5732L61.5947 29.5732L61.5947 29.5732L61.5947 29.5733L61.5947 29.5733L61.5947 29.5733L61.5947 29.5734L61.5947 29.5734L61.5947 29.5734L61.5947 29.5735L61.5946 29.5735L61.5946 29.5735L61.5946 29.5736L61.5946 29.5736L61.5946 29.5736L61.5946 29.5737L61.5946 29.5737L61.5946 29.5737L61.5946 29.5738L61.5945 29.5738L61.5945 29.5738L61.5945 29.5739L61.5945 29.5739L61.5945 29.5739L61.5945 29.574L61.5945 29.574L61.5945 29.5741L61.5944 29.5741L61.5944 29.5741L61.5944 29.5742L61.5944 29.5742L61.5944 29.5742L61.5944 29.5743L61.5944 29.5743L61.5944 29.5744L61.5943 29.5744L61.5943 29.5744L61.5943 29.5745L61.5943 29.5745L61.5943 29.5745L61.5943 29.5746L61.5943 29.5746L61.5943 29.5747L61.5942 29.5747L61.5942 29.5747L61.5942 29.5748L61.5942 29.5748L61.5942 29.5749L61.5942 29.5749L61.5942 29.5749L61.5941 29.575L61.5941 29.575L61.5941 29.5751L61.5941 29.5751L61.5941 29.5752L61.5941 29.5752L61.5941 29.5752L61.5941 29.5753L61.594 29.5753L61.594 29.5754L61.594 29.5754L61.594 29.5755L61.594 29.5755L61.594 29.5755L61.594 29.5756L61.5939 29.5756L61.5939 29.5757L61.5939 29.5757L61.5939 29.5758L61.5939 29.5758L61.5939 29.5759L61.5938 29.5759L61.5938 29.576L61.5938 29.576L61.5938 29.576L61.5938 29.5761L61.5938 29.5761L61.5938 29.5762L61.5937 29.5762L61.5937 29.5763L61.5937 29.5763L61.5937 29.5764L61.5937 29.5764L61.5937 29.5765L61.5936 29.5765L61.5936 29.5766L61.5936 29.5766L61.5936 29.5767L61.5936 29.5767L61.5936 29.5768L61.5935 29.5768L61.5935 29.5769L61.5935 29.5769L61.5935 29.577L61.5935 29.577L61.5935 29.5771L61.5934 29.5771L61.5934 29.5772L61.5934 29.5772L61.5934 29.5773L61.5934 29.5773L61.5934 29.5774L61.5933 29.5774L61.5933 29.5775L61.5933 29.5775L61.5933 29.5776L61.5933 29.5776L61.5933 29.5777L61.5932 29.5778L61.5932 29.5778L61.5932 29.5779L61.5932 29.5779L61.5932 29.578L61.5931 29.578L61.5931 29.5781L61.5931 29.5781L61.5931 29.5782L61.5931 29.5783L61.5931 29.5783L61.593 29.5784L61.593 29.5784L61.593 29.5785L61.593 29.5785L61.593 29.5786L61.5929 29.5787L61.5929 29.5787L61.5929 29.5788L61.5929 29.5788L61.5929 29.5789L61.5928 29.5789L61.5928 29.579L61.5928 29.5791L61.5928 29.5791L61.5928 29.5792L61.5927 29.5792L61.5927 29.5793L61.5927 29.5794L61.5927 29.5794L61.5927 29.5795L61.5926 29.5796L61.5926 29.5796L61.5926 29.5797L61.5926 29.5797L61.5926 29.5798L61.5925 29.5799L61.5925 29.5799L61.5925 29.58L61.5925 29.5801L61.5925 29.5801L61.5924 29.5802L61.5924 29.5803L61.5924 29.5803L61.5924 29.5804L61.5924 29.5804L61.5923 29.5805L61.5923 29.5806L61.5923 29.5806L61.5923 29.5807L61.5922 29.5808L61.5922 29.5808L61.5922 29.5809L61.5922 29.581L61.5922 29.581L61.5921 29.5811L61.1172 29.4246M63.2456 27.4272L63.897 27.7856L63.9795 27.0469M63.2456 27.4272L63.2461 27.4275C63.2467 27.4277 63.2466 27.4277 63.2459 27.4274L63.2445 27.4266L63.2434 27.426L63.2456 27.4272ZM63.9795 27.0469L63.9811 27.037C63.9831 27.0251 63.987 27.0044 63.9938 26.977C64.0074 26.9216 64.0315 26.8426 64.072 26.7554C64.1531 26.5809 64.29 26.3923 64.5267 26.2731L64.5267 26.273C65.193 25.9372 65.9707 26.1453 66.3065 26.7032M63.9795 27.0469L63.9798 27.0441L63.9796 27.0454L63.9794 27.0471C63.9793 27.0479 63.9793 27.0481 63.9794 27.0475L63.9795 27.0469ZM66.3065 26.7032L66.2506 26.5923L66.3205 26.3919L66.322 26.3877L66.794 26.5525L66.7885 26.5553L66.3476 26.7776C66.3348 26.7522 66.3211 26.7274 66.3065 26.7032ZM61.1172 29.4246C61.3247 29.8331 61.6933 30.1143 62.0978 30.2616" stroke="white"/>
<mask id="path-12-inside-1_242_1500" fill="white">
<path d="M62.6334 16.1875C62.5607 16.2228 62.4956 16.2732 62.4423 16.334L62.6334 16.1875Z"/>
</mask>
<path d="M62.6334 16.1875L63.2419 16.981L62.1957 15.2883L62.6334 16.1875ZM62.4423 16.334L61.6903 15.6748L63.0509 17.1275L62.4423 16.334ZM62.1957 15.2883C61.9994 15.3839 61.8285 15.5172 61.6903 15.6748L63.1943 16.9932C63.1628 17.0291 63.122 17.0618 63.071 17.0866L62.1957 15.2883ZM63.0509 17.1275L63.2419 16.981L62.0248 15.394L61.8337 15.5405L63.0509 17.1275Z" fill="white" mask="url(#path-12-inside-1_242_1500)"/>
<path d="M64.4684 17.1328L64.4417 17.0799C64.1721 16.5455 63.4599 16.3314 62.8584 16.6342L64.4684 17.1328ZM64.4684 17.1328C64.582 17.4029 64.5497 17.7023 64.4535 17.9917L64.4531 17.9929L64.4495 18.0037C64.313 18.4135 64.1155 19.0347 63.9529 19.551C63.8713 19.8098 63.7983 20.0432 63.7456 20.2119L63.6833 20.4116L63.6664 20.4659L63.662 20.48L63.6609 20.4836L63.6606 20.4846L63.6605 20.4848L63.6605 20.4849L64.138 20.6332L63.6605 20.4849L63.6602 20.4856C63.6422 20.5439 63.5789 20.5791 63.5155 20.5582L63.5142 20.5578L63.359 21.0331L63.5142 20.5577L63.5142 20.5577L63.5139 20.5577L63.513 20.5574L63.5093 20.5561L63.4947 20.5514L63.4382 20.5329L63.2298 20.4645C63.0534 20.4064 62.8093 20.3259 62.5379 20.2356C61.9949 20.0549 61.348 19.8369 60.9173 19.6829C60.6595 19.587 60.4369 19.4059 60.3122 19.1609C60.0435 18.6266 60.2946 17.9268 60.895 17.6239C61.0997 17.5212 61.2977 17.5072 61.4497 17.5205C61.5256 17.5271 61.587 17.5404 61.6269 17.5511C61.6466 17.5564 61.6605 17.5609 61.6675 17.5633C61.6691 17.5638 61.6703 17.5642 61.6711 17.5645L62.1909 17.7759L62.3364 17.2337C62.3367 17.2328 62.3372 17.2314 62.3378 17.2295C62.3402 17.2221 62.3452 17.2078 62.3531 17.1883C62.369 17.1489 62.396 17.0904 62.4372 17.0241C62.5199 16.8911 62.6521 16.7382 62.8582 16.6343L64.4684 17.1328ZM64.9279 18.1494L64.9241 18.161L64.9279 18.1494ZM64.9279 18.1494C64.935 18.1281 64.9419 18.1065 64.9485 18.0846L64.9279 18.1494Z" stroke="white"/>
</g>
<path d="M32.0319 33.6308C32.0448 33.6396 32.0578 33.6484 32.0708 33.6573M61.9876 43.6014C61.9095 43.5996 61.8313 43.5975 61.7531 43.5952M61.7531 43.5952C49.7531 43.237 36.8754 36.9253 32.0708 33.6573M61.7531 43.5952C60.3395 44.3176 59.1322 47.3003 57.8157 50.553C56.0677 54.8716 54.1271 59.666 51.2555 60.277C46.1749 61.3581 36.7609 57.9474 31.789 54.8401C27.8115 52.3542 30.271 39.766 31.998 33.7826C32.0206 33.7397 32.0449 33.6979 32.0708 33.6573M61.7531 43.5952C61.7833 43.5797 61.8137 43.5653 61.8442 43.5519C65.1601 42.0958 35.4003 28.4303 32.0708 33.6573" stroke="white" stroke-width="1.0931"/>
<g clip-path="url(#clip1_242_1500)">
<path d="M77.4728 14.5289C77.5675 14.8188 77.7194 15.0787 77.9714 15.2284L78.0243 15.255C78.5588 15.5245 79.2588 15.2732 79.5625 14.672C79.6664 14.4659 79.6818 14.2643 79.6692 14.1082C79.6629 14.0304 79.6499 13.9673 79.6393 13.9261C79.634 13.9058 79.6295 13.8914 79.6271 13.8839C79.6265 13.8821 79.626 13.8807 79.6257 13.8797L79.4203 13.3573L79.9639 13.2182C79.9648 13.218 79.966 13.2176 79.9676 13.2171C79.9747 13.2148 79.9885 13.2102 80.0075 13.2027C80.0459 13.1876 80.1032 13.1618 80.1682 13.122C80.2983 13.0423 80.4492 12.9134 80.5527 12.709C80.8554 12.1085 80.6413 11.3966 80.1076 11.1267C79.8617 11.0038 79.575 10.9905 79.3107 11.0667C78.8729 11.1989 78.2231 11.4082 77.679 11.5857C77.4072 11.6745 77.1629 11.7548 76.9866 11.813L76.7783 11.8819L76.7219 11.9006L76.7073 11.9055L76.7037 11.9067L76.7027 11.907L76.7025 11.9071L76.7025 11.9071L76.5447 11.4327L76.7024 11.9071L76.7012 11.9075C76.6379 11.9284 76.6077 11.9943 76.628 12.052L76.6282 12.0528L76.1561 12.2174L76.6282 12.0528L76.6282 12.0529L76.6283 12.0531L76.6286 12.054L76.6299 12.0576L76.6348 12.0716L76.6535 12.1253L76.7221 12.3229C76.78 12.4898 76.86 12.721 76.9483 12.9776C77.1244 13.4893 77.3349 14.1062 77.4688 14.5168L77.4724 14.5276L77.4728 14.5289Z" stroke="white"/>
<path d="M89.8318 13.6863C89.2299 13.4362 88.4798 13.7312 88.1435 14.3979L88.1435 14.3979C88.0241 14.6345 88.0261 14.8676 88.0647 15.0561C88.0839 15.1502 88.1115 15.2281 88.1335 15.2808C88.1444 15.3068 88.1535 15.3258 88.1589 15.3365L88.1635 15.3455L88.5364 15.9885L87.7996 16.0875L87.7888 16.0895C87.7763 16.0919 87.7547 16.0965 87.7262 16.1042C87.6686 16.1197 87.5862 16.1468 87.495 16.1911C87.3124 16.2801 87.1117 16.4294 86.9836 16.6834L86.9836 16.6835C86.6355 17.3735 86.8801 18.1897 87.497 18.501L87.2718 18.9473L87.2833 18.9435L87.4995 18.5119C87.7751 18.6499 88.1042 18.6626 88.4187 18.5699C88.9297 18.4161 89.6886 18.1734 90.3233 17.9679C90.6401 17.8654 90.9248 17.7725 91.1303 17.7052L91.3732 17.6256L91.4389 17.604L91.456 17.5984L91.4603 17.5969L91.4613 17.5966L91.4616 17.5965L91.4617 17.5965L91.6182 18.0714L91.4617 17.5965C91.525 17.5756 91.5551 17.5096 91.5349 17.4521L91.5349 17.4521L91.5345 17.451L91.5331 17.4468L91.5273 17.4304L91.5053 17.3675L91.4243 17.1359C91.3559 16.9403 91.2616 16.6695 91.1576 16.369C90.95 15.7693 90.7024 15.047 90.5466 14.5685L90.5462 14.5675C90.4306 14.2099 90.2382 13.8913 89.9088 13.7251L89.8318 13.6863Z" stroke="white"/>
<path d="M94.8093 21.2041L94.8103 21.2046C95.0446 21.3222 95.3568 21.6012 95.4913 21.9794L95.4957 21.9917L95.4958 21.9916C95.7139 22.5574 96.0228 23.4088 96.2785 24.1222C96.4061 24.4782 96.52 24.7986 96.6019 25.0299L96.6986 25.3034L96.7247 25.3775L96.7315 25.3967L96.7332 25.4016L96.7336 25.4028L96.7336 25.4028C96.7556 25.4655 96.7193 25.5304 96.6615 25.5471C96.6615 25.5471 96.6615 25.5471 96.6615 25.5471L96.6614 25.5471L96.6611 25.5472L96.6598 25.5475L96.655 25.5489L96.636 25.5544L96.5631 25.5754L96.295 25.6528C96.0686 25.7183 95.7553 25.8091 95.4082 25.9105C94.7152 26.1129 93.8828 26.3587 93.3374 26.5287L93.3363 26.529C92.9317 26.6562 92.5049 26.6886 92.1308 26.5C92.1308 26.5 92.1308 26.5 92.1308 26.5M94.8093 21.2041L91.0804 24.2397C90.5849 25.2226 90.9281 26.4535 91.9057 26.9465L92.1308 26.5M94.8093 21.2041C94.0997 20.8461 93.193 21.1623 92.8104 21.9198L92.3641 21.6944L94.8093 21.2041ZM92.1308 26.5C91.4246 26.1438 91.1428 25.2266 91.5269 24.4648L91.5269 24.4647C91.6794 24.1621 91.9071 23.973 92.1041 23.8574C92.2024 23.7998 92.29 23.7623 92.3505 23.7399C92.3806 23.7288 92.4034 23.7216 92.4167 23.7177L92.4287 23.7144L92.1308 26.5Z" stroke="white"/>
<path d="M79.7472 31.0356C81.0698 30.7299 82.3649 30.8537 83.5766 31.363C85.9997 32.3814 88.0571 34.774 89.7627 37.8894C90.1668 38.6115 89.0762 39.2113 88.6829 38.483C87.0519 35.504 85.1095 33.3344 83.101 32.4902C81.0924 31.6461 78.9892 31.9705 76.5832 34.2C75.9829 34.8372 75.0714 33.8501 75.7544 33.3026C77.0012 32.321 78.3524 31.3276 79.7472 31.0356Z" fill="white"/>
<path d="M87.0753 21.5023C87.9477 21.2896 88.9621 21.4904 90.1548 22.0672C90.9766 22.3892 90.384 23.6114 89.6221 23.1657C88.5795 22.6616 87.8452 22.5745 87.3626 22.6921C86.8808 22.8122 86.5592 23.1148 86.2729 23.6888C85.7002 24.8372 85.551 26.9925 85.6104 29.246C85.6323 30.0635 84.4058 30.0965 84.384 29.2789C84.3231 26.9673 84.386 24.7229 85.1713 23.1478C85.6546 22.2301 86.3083 21.6825 87.0753 21.5023Z" fill="white"/>
<path d="M74.0788 21.9212C74.8746 21.6023 75.71 21.6512 76.4628 21.9351C77.9685 22.503 79.251 23.899 80.4442 25.3814C81.078 26.0214 79.9949 26.9012 79.4982 26.1498C78.3486 24.7217 77.0996 23.4803 76.03 23.0769C75.4952 22.875 75.0351 22.8552 74.538 23.0547C74.0403 23.2523 73.4752 23.7104 72.889 24.5782C72.4573 25.37 71.3026 24.5826 71.8823 23.8916C72.473 22.9965 73.2931 22.2654 74.0789 21.9214L74.0788 21.9212Z" fill="white"/>
<path d="M83.4097 14.336C84.2179 14.1186 85.1655 14.1701 86.2763 14.4857C87.1054 14.6841 86.7495 15.9311 85.9407 15.6623C84.9789 15.3891 84.2619 15.3817 83.7258 15.5261C83.1894 15.6694 82.8114 15.9551 82.4879 16.3907C81.8413 17.2635 81.5182 18.791 81.3763 20.4114C81.3471 21.2766 80.0286 21.1547 80.159 20.2987C80.3076 18.6019 80.5902 16.8924 81.5043 15.6586C82.0506 14.9432 82.6856 14.5478 83.4099 14.3362L83.4097 14.336Z" fill="white"/>
<path d="M76.3162 36.192C76.4147 36.2408 76.4983 36.3147 76.5583 36.407L76.3162 36.192Z" fill="white"/>
<path d="M72.6057 40.5607C72.6057 40.5607 72.6057 40.5607 72.6057 40.5607L72.6058 40.5607L72.6061 40.5606L72.6073 40.5601L72.612 40.5584L72.6305 40.5515L72.7016 40.525L72.9632 40.4279C73.1842 40.3459 73.4901 40.2327 73.8295 40.1079C74.5071 39.8586 75.3225 39.5614 75.8621 39.3739L75.8631 39.3735C76.2642 39.235 76.6266 39.0074 76.8152 38.6334L76.8152 38.6334C77.1714 37.9271 76.8527 37.0221 76.0909 36.6378L76.0909 36.6378C75.7883 36.4851 75.4928 36.4684 75.2657 36.4926C75.1524 36.5046 75.0597 36.5266 74.9977 36.5446C74.9669 36.5535 74.9443 36.5613 74.9313 36.5661L74.9197 36.5705L74.3517 36.8157L74.2348 36.2088L74.2323 36.1984C74.2292 36.1862 74.2233 36.1648 74.2139 36.1364C74.1949 36.0791 74.1623 35.996 74.1107 35.9027C74.0075 35.7165 73.8345 35.5003 73.5457 35.3545C72.7878 34.9729 71.8709 35.2578 71.5132 35.9675L71.495 36.0036L71.9841 40.6349C72.0875 40.97 72.4515 41.1518 72.7803 41.0292L72.6057 40.5607ZM72.6057 40.5607C72.5494 40.5817 72.4815 40.5512 72.4619 40.4875M72.6057 40.5607L72.4619 40.4875M72.4619 40.4875L72.4619 40.4875L72.4619 40.4875ZM77.2617 38.8585C76.99 39.3973 76.4871 39.687 76.0262 39.8462L77.2617 38.8585Z" stroke="white"/>
<path d="M70.7267 24.9197C70.7806 24.9458 70.8307 24.9808 70.8748 25.0229L70.7267 24.9197Z" fill="white"/>
<path d="M69.1127 29.9865C69.1127 29.9865 68.5117 28.0358 68.1965 27.0908C68.057 26.6751 67.984 26.1501 68.2359 25.6504L69.1127 29.9865ZM69.1127 29.9865L69.5905 29.8392L69.5905 29.8392L69.5905 29.839C69.6085 29.8971 69.6719 29.9323 69.7352 29.9114L69.8916 30.3863M69.1127 29.9865L69.5904 29.8389L69.5904 29.8389L69.5901 29.8378L69.5888 29.8335L69.5837 29.8169L69.564 29.7532L69.4915 29.5189C69.4301 29.3209 69.345 29.0471 69.25 28.7436C69.0604 28.138 68.83 27.41 68.6708 26.9326L68.6705 26.9316C68.551 26.5755 68.5163 26.2049 68.6824 25.8755L68.7219 25.797M69.1127 29.9865C69.2141 30.3147 69.5653 30.4939 69.8916 30.3863M69.1127 29.9865L73.9112 28.5184M69.8916 30.3863L69.7352 29.9114L69.7352 29.9114L69.7355 29.9113L69.7366 29.911L69.7409 29.9096L69.7579 29.9039L69.8237 29.8822L70.0662 29.8019C70.2715 29.7338 70.5556 29.6392 70.8714 29.5333C71.5038 29.3212 72.2584 29.0652 72.7607 28.8851M69.8916 30.3863C69.8916 30.3863 71.9152 29.7195 72.9307 29.3553M72.7607 28.8851C73.0245 28.7888 73.251 28.624 73.3982 28.4059M72.7607 28.8851C72.7611 28.8849 72.7615 28.8848 72.7619 28.8847L72.9307 29.3553M72.7607 28.8851C72.7603 28.8852 72.7599 28.8854 72.7596 28.8855L72.9307 29.3553M73.3982 28.4059L73.4609 28.2817C73.7719 27.6646 73.4833 26.8629 72.7932 26.5151L72.7931 26.515C72.5391 26.3869 72.289 26.3862 72.0893 26.4232C71.9896 26.4417 71.9073 26.469 71.8517 26.4908C71.8242 26.5016 71.8041 26.5107 71.7926 26.5162L71.7828 26.521M73.3982 28.4059C73.4229 28.3694 73.4454 28.3314 73.4654 28.292L73.8958 28.5106L73.9112 28.5184M73.3982 28.4059L73.3677 28.4666L73.4325 28.6632L73.4325 28.6632L73.4325 28.6632L73.4325 28.6632L73.4325 28.6633L73.4325 28.6633L73.4325 28.6633L73.4325 28.6633L73.4325 28.6633L73.4325 28.6633L73.4325 28.6633L73.4325 28.6633L73.4325 28.6633L73.4325 28.6633L73.4325 28.6633L73.4325 28.6633L73.4325 28.6633L73.4325 28.6633L73.4325 28.6633L73.4325 28.6633L73.4325 28.6633L73.4325 28.6633L73.4325 28.6633L73.4325 28.6633L73.4325 28.6633L73.4325 28.6633L73.4325 28.6634L73.4325 28.6634L73.4325 28.6634L73.4325 28.6634L73.4325 28.6634L73.4325 28.6634L73.4325 28.6634L73.4325 28.6634L73.4325 28.6634L73.4325 28.6634L73.4325 28.6634L73.4325 28.6634L73.4325 28.6634L73.4325 28.6634L73.4325 28.6634L73.4325 28.6634L73.4325 28.6634L73.4325 28.6634L73.4325 28.6634L73.4325 28.6634L73.4325 28.6634L73.4325 28.6634L73.4325 28.6634L73.4326 28.6635L73.4326 28.6635L73.4326 28.6635L73.4326 28.6635L73.4326 28.6635L73.4326 28.6635L73.4326 28.6635L73.4326 28.6635L73.4326 28.6635L73.4326 28.6635L73.4326 28.6635L73.4326 28.6635L73.4326 28.6635L73.4326 28.6635L73.4326 28.6635L73.4326 28.6635L73.4326 28.6635L73.4326 28.6635L73.4326 28.6636L73.4326 28.6636L73.4326 28.6636L73.4326 28.6636L73.4326 28.6636L73.4326 28.6636L73.4326 28.6636L73.4326 28.6636L73.4326 28.6636L73.4326 28.6636L73.4326 28.6636L73.4326 28.6636L73.4326 28.6636L73.4326 28.6636L73.4326 28.6636L73.4326 28.6637L73.4326 28.6637L73.4326 28.6637L73.4326 28.6637L73.4326 28.6637L73.4326 28.6637L73.4326 28.6637L73.4326 28.6637L73.4326 28.6637L73.4326 28.6637L73.4326 28.6637L73.4326 28.6637L73.4326 28.6637L73.4327 28.6638L73.4327 28.6638L73.4327 28.6638L73.4327 28.6638L73.4327 28.6638L73.4327 28.6638L73.4327 28.6638L73.4327 28.6638L73.4327 28.6638L73.4327 28.6638L73.4327 28.6638L73.4327 28.6639L73.4327 28.6639L73.4327 28.6639L73.4327 28.6639L73.4327 28.6639L73.4327 28.6639L73.4327 28.6639L73.4327 28.6639L73.4327 28.6639L73.4327 28.6639L73.4327 28.664L73.4327 28.664L73.4327 28.664L73.4327 28.664L73.4327 28.664L73.4327 28.664L73.4327 28.664L73.4327 28.664L73.4327 28.664L73.4328 28.6641L73.4328 28.6641L73.4328 28.6641L73.4328 28.6641L73.4328 28.6641L73.4328 28.6641L73.4328 28.6641L73.4328 28.6641L73.4328 28.6642L73.4328 28.6642L73.4328 28.6642L73.4328 28.6642L73.4328 28.6642L73.4328 28.6642L73.4328 28.6642L73.4328 28.6642L73.4328 28.6643L73.4328 28.6643L73.4328 28.6643L73.4328 28.6643L73.4328 28.6643L73.4328 28.6643L73.4328 28.6643L73.4328 28.6644L73.4329 28.6644L73.4329 28.6644L73.4329 28.6644L73.4329 28.6644L73.4329 28.6644L73.4329 28.6644L73.4329 28.6645L73.4329 28.6645L73.4329 28.6645L73.4329 28.6645L73.4329 28.6645L73.4329 28.6645L73.4329 28.6646L73.4329 28.6646L73.4329 28.6646L73.4329 28.6646L73.4329 28.6646L73.4329 28.6646L73.4329 28.6647L73.433 28.6647L73.433 28.6647L73.433 28.6647L73.433 28.6647L73.433 28.6647L73.433 28.6648L73.433 28.6648L73.433 28.6648L73.433 28.6648L73.433 28.6648L73.433 28.6648L73.433 28.6649L73.433 28.6649L73.433 28.6649L73.433 28.6649L73.433 28.6649L73.433 28.665L73.4331 28.665L73.4331 28.665L73.4331 28.665L73.4331 28.665L73.4331 28.6651L73.4331 28.6651L73.4331 28.6651L73.4331 28.6651L73.4331 28.6651L73.4331 28.6652L73.4331 28.6652L73.4331 28.6652L73.4331 28.6652L73.4331 28.6652L73.4331 28.6653L73.4332 28.6653L73.4332 28.6653L73.4332 28.6653L73.4332 28.6653L73.4332 28.6654L73.4332 28.6654L73.4332 28.6654L73.4332 28.6654L73.4332 28.6655L73.4332 28.6655L73.4332 28.6655L73.4332 28.6655L73.4332 28.6656L73.4333 28.6656L73.4333 28.6656L73.4333 28.6656L73.4333 28.6656L73.4333 28.6657L73.4333 28.6657L73.4333 28.6657L73.4333 28.6657L73.4333 28.6658L73.4333 28.6658L73.4333 28.6658L73.4333 28.6658L73.4333 28.6659L73.4334 28.6659L73.4334 28.6659L73.4334 28.6659L73.4334 28.666L73.4334 28.666L73.4334 28.666L73.4334 28.666L73.4334 28.6661L73.4334 28.6661L73.4334 28.6661L73.4334 28.6662L73.4335 28.6662L73.4335 28.6662L73.4335 28.6662L73.4335 28.6663L73.4335 28.6663L73.4335 28.6663L73.4335 28.6664L73.4335 28.6664L73.4335 28.6664L73.4335 28.6664L73.4335 28.6665L73.4336 28.6665L73.4336 28.6665L73.4336 28.6666L73.4336 28.6666L73.4336 28.6666L73.4336 28.6666L73.4336 28.6667L73.4336 28.6667L73.4336 28.6667L73.4336 28.6668L73.4337 28.6668L73.4337 28.6668L73.4337 28.6669L73.4337 28.6669L73.4337 28.6669L73.4337 28.667L73.4337 28.667L73.4337 28.667L73.4337 28.667L73.4337 28.6671L73.4338 28.6671L73.4338 28.6671L73.4338 28.6672L73.4338 28.6672L73.4338 28.6672L73.4338 28.6673L73.4338 28.6673L73.4338 28.6673L73.4338 28.6674L73.4339 28.6674L73.4339 28.6674L73.4339 28.6675L73.4339 28.6675L73.4339 28.6676L73.4339 28.6676L73.4339 28.6676L73.4339 28.6677L73.4339 28.6677L73.434 28.6677L73.434 28.6678L73.434 28.6678L73.434 28.6678L73.434 28.6679L73.434 28.6679L73.434 28.668L73.434 28.668L73.4341 28.668L73.4341 28.6681L73.4341 28.6681L73.4341 28.6681L73.4341 28.6682L73.4341 28.6682L73.4341 28.6683L73.4341 28.6683L73.4342 28.6683L73.4342 28.6684L73.4342 28.6684L73.4342 28.6685L73.4342 28.6685L73.4342 28.6685L73.4342 28.6686L73.4343 28.6686L73.4343 28.6687L73.4343 28.6687L73.4343 28.6687L73.4343 28.6688L73.4343 28.6688L73.4343 28.6689L73.4343 28.6689L73.4344 28.669L73.4344 28.669L73.4344 28.669L73.4344 28.6691L73.4344 28.6691L73.4344 28.6692L73.4344 28.6692L73.4345 28.6693L73.4345 28.6693L73.4345 28.6693L73.4345 28.6694L73.4345 28.6694L73.4345 28.6695L73.4345 28.6695L73.4346 28.6696L73.4346 28.6696L73.4346 28.6697L73.4346 28.6697L73.4346 28.6697L73.4346 28.6698L73.4347 28.6698L73.4347 28.6699L73.4347 28.6699L73.4347 28.67L73.4347 28.67L73.4347 28.6701L73.4347 28.6701L73.4348 28.6702L73.4348 28.6702L73.4348 28.6703L73.4348 28.6703L73.4348 28.6704L73.4348 28.6704L73.4349 28.6705L73.4349 28.6705L73.4349 28.6706L73.4349 28.6706L73.4349 28.6707L73.4349 28.6707L73.435 28.6708L73.435 28.6708L73.435 28.6709L73.435 28.6709L73.435 28.671L73.435 28.671L73.4351 28.6711L73.4351 28.6711L73.4351 28.6712L73.4351 28.6712L73.4351 28.6713L73.4352 28.6713L73.4352 28.6714L73.4352 28.6715L73.4352 28.6715L73.4352 28.6716L73.4352 28.6716L73.4353 28.6717L73.4353 28.6717L73.4353 28.6718L73.4353 28.6718L73.4353 28.6719L73.4354 28.6719L73.4354 28.672L73.4354 28.6721L73.4354 28.6721L73.4354 28.6722L73.4354 28.6722L73.4355 28.6723L73.4355 28.6723L73.4355 28.6724L73.4355 28.6725L73.4355 28.6725L73.4356 28.6726L73.4356 28.6726L73.4356 28.6727L73.4356 28.6728L73.4356 28.6728L73.4357 28.6729L73.4357 28.6729L73.4357 28.673L73.4357 28.6731L73.4357 28.6731L73.4358 28.6732L73.4358 28.6732L73.4358 28.6733L73.4358 28.6734L73.4358 28.6734L73.4359 28.6735L73.4359 28.6736L73.4359 28.6736L73.4359 28.6737L73.4359 28.6737L73.436 28.6738L73.436 28.6739L73.436 28.6739L73.436 28.674L73.436 28.6741L73.4361 28.6741L73.4361 28.6742L73.4361 28.6743L73.4361 28.6743L73.4362 28.6744L73.4362 28.6745L73.4362 28.6745L73.4362 28.6746L73.4362 28.6747L73.4363 28.6747L73.4363 28.6748L73.4363 28.6749L73.9112 28.5184M71.7828 26.521L71.1314 26.8794L71.049 26.1407M71.7828 26.521L71.7823 26.5212C71.7818 26.5215 71.7818 26.5215 71.7825 26.5211L71.784 26.5203L71.7851 26.5197L71.7828 26.521ZM71.049 26.1407L71.0474 26.1307C71.0454 26.1189 71.0414 26.0982 71.0347 26.0708C71.021 26.0153 70.9969 25.9363 70.9564 25.8492C70.8754 25.6747 70.7384 25.4861 70.5018 25.3668L70.5017 25.3668C69.8355 25.0309 69.0577 25.2391 68.7219 25.797M71.049 26.1407L71.0487 26.1379L71.0488 26.1391L71.049 26.1409C71.0491 26.1417 71.0491 26.1418 71.0491 26.1413L71.049 26.1407ZM68.7219 25.797L68.7779 25.686L68.708 25.4857L68.7065 25.4815L68.2344 25.6462L68.2399 25.649L68.6808 25.8714C68.6937 25.8459 68.7074 25.8211 68.7219 25.797ZM73.9112 28.5184C73.7038 28.9268 73.3351 29.208 72.9307 29.3553" stroke="white"/>
<mask id="path-27-inside-2_242_1500" fill="white">
<path d="M72.3951 15.2812C72.4677 15.3166 72.5328 15.3669 72.5861 15.4277L72.3951 15.2812Z"/>
</mask>
<path d="M72.3951 15.2812L71.7865 16.0747L72.8328 14.3821L72.3951 15.2812ZM72.5861 15.4277L73.3381 14.7686L71.9776 16.2212L72.5861 15.4277ZM72.8328 14.3821C73.029 14.4776 73.2 14.611 73.3381 14.7686L71.8342 16.0869C71.8657 16.1229 71.9064 16.1555 71.9574 16.1803L72.8328 14.3821ZM71.9776 16.2212L71.7865 16.0747L73.0036 14.4877L73.1947 14.6342L71.9776 16.2212Z" fill="white" mask="url(#path-27-inside-2_242_1500)"/>
<path d="M70.5601 16.2265L70.5867 16.1737C70.8563 15.6392 71.5685 15.4251 72.1701 15.7279L70.5601 16.2265ZM70.5601 16.2265C70.4465 16.4966 70.4788 16.796 70.575 17.0854L70.5754 17.0866L70.579 17.0975C70.7154 17.5073 70.9129 18.1285 71.0756 18.6447C71.1571 18.9035 71.2302 19.137 71.2829 19.3057L71.3452 19.5053L71.3621 19.5596L71.3665 19.5738L71.3676 19.5774L71.3679 19.5783L71.3679 19.5786L71.368 19.5786L70.8905 19.727L71.368 19.5786L71.3682 19.5794C71.3862 19.6376 71.4496 19.6728 71.5129 19.6519L71.5142 19.6515L71.6694 20.1268L71.5142 19.6515L71.5143 19.6515L71.5145 19.6514L71.5154 19.6511L71.5191 19.6499L71.5337 19.6451L71.5902 19.6266L71.7987 19.5582C71.975 19.5002 72.2192 19.4196 72.4905 19.3293C73.0336 19.1486 73.6805 18.9306 74.1112 18.7766C74.3689 18.6808 74.5916 18.4996 74.7163 18.2547C74.985 17.7203 74.7339 17.0206 74.1334 16.7177C73.9287 16.6149 73.7307 16.6009 73.5787 16.6142C73.5028 16.6209 73.4414 16.6342 73.4015 16.6448C73.3818 16.6501 73.3679 16.6546 73.3609 16.657C73.3593 16.6575 73.3581 16.658 73.3573 16.6583L72.8375 16.8697L72.692 16.3275C72.6917 16.3265 72.6913 16.3251 72.6907 16.3233C72.6882 16.3158 72.6833 16.3016 72.6754 16.2821C72.6594 16.2427 72.6324 16.1842 72.5912 16.1179C72.5086 15.9849 72.3763 15.8319 72.1702 15.728L70.5601 16.2265ZM70.1005 17.2431L70.1043 17.2547L70.1005 17.2431ZM70.1005 17.2431C70.0934 17.2219 70.0866 17.2003 70.0799 17.1784L70.1005 17.2431Z" stroke="white"/>
</g>
<path d="M102.457 32.6313C102.444 32.6401 102.431 32.6489 102.418 32.6578M72.5012 42.6019C72.5794 42.6001 72.6575 42.598 72.7358 42.5957M72.7358 42.5957C84.7357 42.2375 97.6134 35.9258 102.418 32.6578M72.7358 42.5957C74.1493 43.3181 75.3566 46.3008 76.6732 49.5535C78.4212 53.8721 80.3617 58.6665 83.2333 59.2775C88.3139 60.3585 97.7279 56.9479 102.7 53.8406C106.677 51.3547 104.218 38.7664 102.491 32.7831C102.468 32.7401 102.444 32.6984 102.418 32.6578M72.7358 42.5957C72.7055 42.5802 72.6751 42.5658 72.6447 42.5524C69.3287 41.0963 99.0886 27.4308 102.418 32.6578" stroke="white" stroke-width="1.0931"/>
<path d="M105.11 46.5556C109.175 43.3209 112.036 38.7409 111.936 36.2147C111.836 33.6885 110.377 32.4496 108.219 31.8078C106.207 31.2094 102.704 32.6863 103.009 33.1278L103.461 35.5894C103.573 35.3935 105.401 33.4381 106.927 33.6808C109.111 34.028 109.476 35.9596 109.316 37.7861C109.05 40.8368 105.074 44.3811 105.074 44.3811L105.11 46.5556Z" stroke="white" stroke-width="0.850959"/>
<defs>
<clipPath id="clip0_242_1500">
<rect width="30" height="30" fill="white" transform="translate(43.3892 8) rotate(18.2385)"/>
</clipPath>
<clipPath id="clip1_242_1500">
<rect width="30" height="30" fill="white" transform="matrix(-0.949762 0.312974 0.312974 0.949762 91.6606 6.45117)"/>
</clipPath>
</defs>
</svg>
