<svg width="86" height="80" viewBox="0 0 86 80" fill="none" xmlns="http://www.w3.org/2000/svg">
<g clip-path="url(#clip0_242_1501)">
<path d="M77.3787 32.953L74.5534 32.5295L74.497 32.0417C74.4257 31.4255 73.9028 30.963 73.2807 30.9659C72.1692 30.9711 69.9838 31.1811 67.6888 32.5054C67.3863 32.1309 66.8888 31.9674 66.4143 32.0974C64.9671 32.4942 63.5675 33.2419 62.3666 34.2599C61.1658 35.2779 60.199 36.5363 59.5707 37.899C59.3648 38.3458 59.4447 38.8633 59.7646 39.223C58.0825 41.2703 57.5176 43.3918 57.3306 44.4876C57.2259 45.1008 57.5965 45.6923 58.1927 45.8635L58.6647 45.9991L58.62 48.8556C58.606 49.7513 58.9173 50.6208 59.4965 51.3041C59.9365 51.8231 60.6023 52.0827 61.2776 51.9984C61.6721 51.9491 62.0346 51.787 62.3274 51.5387C62.5358 51.362 62.709 51.1417 62.8332 50.8876L64.437 47.608C64.725 47.609 65.0037 47.5079 65.2234 47.3217C65.3084 47.2495 65.3847 47.1647 65.4492 47.0683L66.651 45.2706C66.9645 45.2979 67.287 45.205 67.5428 44.9882L72.1028 41.1224C72.3586 40.9056 72.5031 40.6027 72.5274 40.2889L74.4976 39.3975C74.6033 39.3497 74.6994 39.2884 74.7845 39.2162C75.0041 39.0301 75.1495 38.7716 75.1957 38.4874L78.6936 37.4421C78.9647 37.3611 79.2103 37.2263 79.4187 37.0496C79.7116 36.8014 79.931 36.4703 80.0441 36.0892C80.2378 35.4368 80.0907 34.7375 79.6507 34.2185C79.0715 33.5352 78.2646 33.0858 77.3787 32.953ZM62.1365 50.5469C61.9503 50.9278 61.6022 51.1763 61.1815 51.2288C60.7608 51.2813 60.3623 51.126 60.0881 50.8026C59.6304 50.2626 59.3844 49.5755 59.3955 48.8677L59.4369 46.2208L63.6591 47.4331L62.1365 50.5469ZM64.8044 46.6372C64.6977 46.7967 64.5021 46.8683 64.3177 46.8154L58.4067 45.1181C58.191 45.0562 58.057 44.8413 58.095 44.6182C58.2679 43.606 58.7873 41.6525 60.33 39.7562L65.9306 44.9521C65.9307 44.9521 65.9308 44.9522 65.9308 44.9522L64.8044 46.6372ZM71.6013 40.5308L67.0413 44.3965C66.8717 44.5402 66.621 44.5346 66.4581 44.3835L60.3739 38.7389C60.2331 38.6082 60.1933 38.4012 60.2751 38.2238C60.8563 36.9631 61.753 35.797 62.8682 34.8516C63.9833 33.9062 65.2805 33.2125 66.6193 32.8455C66.8077 32.7938 67.0054 32.8669 67.1113 33.0273L71.6838 39.9534C71.8063 40.1388 71.7708 40.3871 71.6013 40.5308ZM74.1779 38.6908L72.3313 39.5263C72.3312 39.5262 72.3311 39.5261 72.3311 39.5261L68.1221 33.1505C70.2454 31.939 72.2576 31.7463 73.2843 31.7415C73.5106 31.7405 73.7007 31.9078 73.7265 32.1308L74.4333 38.2399C74.4554 38.4305 74.3527 38.6117 74.1779 38.6908ZM79.3006 35.8684C79.18 36.2748 78.8777 36.5775 78.4716 36.6989L75.1506 37.6914L74.6458 33.3277L77.2638 33.7201C77.9638 33.825 78.6014 34.1801 79.0591 34.72C79.3333 35.0434 79.4213 35.462 79.3006 35.8684Z" fill="white"/>
</g>
<path d="M28.827 29.4683C28.8386 29.4759 28.8503 29.4835 28.8621 29.4911M55.712 37.7739C55.6423 37.7738 55.5726 37.7734 55.5029 37.7729M55.5029 37.7729C44.8032 37.6856 33.2065 32.3103 28.8621 29.4911M55.5029 37.7729C54.2573 38.4438 53.2391 41.125 52.1288 44.0488C50.6547 47.9307 49.0182 52.2403 46.4713 52.8402C41.965 53.9017 33.5106 51.0445 29.0203 48.3717C25.4281 46.2335 27.3765 34.9691 28.7997 29.6042C28.819 29.5655 28.8398 29.5278 28.8621 29.4911M55.5029 37.7729C55.5295 37.7585 55.5563 37.745 55.5832 37.7325C58.5098 36.371 31.7279 24.7692 28.8621 29.4911" stroke="white" stroke-width="0.97425"/>
<path d="M26.732 41.9272C23.0476 39.1234 20.4091 35.0977 20.4496 32.8447C20.4901 30.5918 21.7661 29.4597 23.6766 28.8461C25.4578 28.274 28.6079 29.5223 28.3449 29.9216L27.9898 32.1238C27.8863 31.9514 26.2193 30.2444 24.864 30.4901C22.9247 30.8417 22.6369 32.5698 22.8143 34.1943C23.1105 36.9076 26.7217 39.9889 26.7217 39.9889L26.732 41.9272Z" stroke="white" stroke-width="0.758435"/>
<defs>
<clipPath id="clip0_242_1501">
<rect width="26.4217" height="26.4217" fill="white" transform="translate(48 37.7427) rotate(-40.2894)"/>
</clipPath>
</defs>
</svg>
