<svg width="38" height="38" viewBox="0 0 38 38" fill="none" xmlns="http://www.w3.org/2000/svg">
<g clip-path="url(#clip0_19_234)">
<path d="M10.9688 28.125V28.875H11.7188H36.3281C36.5584 28.875 36.75 29.0666 36.75 29.2969V31.6406C36.75 31.8709 36.5584 32.0625 36.3281 32.0625H11.7188H10.9688V32.8125V33.9844C10.9688 34.2147 10.7772 34.4062 10.5469 34.4062H8.20312C7.97281 34.4062 7.78125 34.2147 7.78125 33.9844V32.8125V32.0625H7.03125H1.17188C0.941557 32.0625 0.75 31.8709 0.75 31.6406V29.2969C0.75 29.0666 0.941557 28.875 1.17188 28.875H7.03125H7.78125V28.125V26.9531C7.78125 26.7228 7.97281 26.5312 8.20312 26.5312H10.5469C10.7772 26.5312 10.9688 26.7228 10.9688 26.9531V28.125ZM29.7188 16.4062V17.1562H30.4688H36.3281C36.5584 17.1562 36.75 17.3478 36.75 17.5781V19.9219C36.75 20.1522 36.5584 20.3438 36.3281 20.3438H30.4688H29.7188V21.0938V22.2656C29.7188 22.4959 29.5272 22.6875 29.2969 22.6875H26.9531C26.7228 22.6875 26.5312 22.4959 26.5312 22.2656V21.0938V20.3438H25.7812H1.17188C0.941557 20.3438 0.75 20.1522 0.75 19.9219V17.5781C0.75 17.3478 0.941557 17.1562 1.17188 17.1562H25.7812H26.5312V16.4062V15.2344C26.5312 15.0041 26.7228 14.8125 26.9531 14.8125H29.2969C29.5272 14.8125 29.7188 15.0041 29.7188 15.2344V16.4062ZM20.3438 4.6875V5.4375H21.0938H36.3281C36.5584 5.4375 36.75 5.62906 36.75 5.85938V8.20312C36.75 8.43344 36.5584 8.625 36.3281 8.625H21.0938H20.3438V9.375V10.5469C20.3438 10.7772 20.1522 10.9688 19.9219 10.9688H17.5781C17.3478 10.9688 17.1562 10.7772 17.1562 10.5469V9.375V8.625H16.4062H1.17188C0.941557 8.625 0.75 8.43344 0.75 8.20312V5.85938C0.75 5.62906 0.941557 5.4375 1.17188 5.4375H16.4062H17.1562V4.6875V3.51562C17.1562 3.28531 17.3478 3.09375 17.5781 3.09375H19.9219C20.1522 3.09375 20.3438 3.28531 20.3438 3.51562V4.6875Z" stroke="black" stroke-width="1.5"/>
</g>
<defs>
<clipPath id="clip0_19_234">
<rect width="37.5" height="37.5" fill="white"/>
</clipPath>
</defs>
</svg>
