<svg width="38" height="38" viewBox="0 0 38 38" fill="none" xmlns="http://www.w3.org/2000/svg">
<g clip-path="url(#clip0_19_228)">
<path d="M33.625 18.75C33.625 20.6335 34.9688 22.2032 36.75 22.5525V28.125C36.75 29.4367 35.6867 30.5 34.375 30.5H3.125C1.8133 30.5 0.75 29.4367 0.75 28.125V22.5525C2.53119 22.2032 3.875 20.6335 3.875 18.75C3.875 16.8665 2.53119 15.2968 0.75 14.9475V9.375C0.75 8.0633 1.8133 7 3.125 7H34.375C35.6867 7 36.75 8.0633 36.75 9.375V14.9475C34.9688 15.2968 33.625 16.8665 33.625 18.75Z" stroke="black" stroke-width="1.5"/>
</g>
<defs>
<clipPath id="clip0_19_228">
<rect width="37.5" height="37.5" fill="white"/>
</clipPath>
</defs>
</svg>
